<?xml version="1.0" standalone="no"?>
<!DOCTYPE svg PUBLIC "-//W3C//DTD SVG 20010904//EN"
 "http://www.w3.org/TR/2001/REC-SVG-20010904/DTD/svg10.dtd">
<svg version="1.0" xmlns="http://www.w3.org/2000/svg"
 width="1280.000000pt" height="1124.000000pt" viewBox="0 0 1280.000000 1124.000000"
 preserveAspectRatio="xMidYMid meet">
<g transform="translate(0.000000,1124.000000) scale(0.100000,-0.100000)"
fill="#000000" stroke="none">
<path d="M6525 11142 c-72 -42 -147 -87 -167 -99 l-37 -22 32 -56 c18 -30
1139 -1897 2491 -4148 1353 -2250 2700 -4492 2994 -4982 492 -820 612 -1015
520 -845 -31 57 -4044 7289 -5233 9430 -243 437 -448 796 -456 797 -8 1 -73
-33 -144 -75z"/>
<path d="M5377 9258 c-387 -645 -1751 -2916 -3030 -5046 -1280 -2130 -2327
-3877 -2327 -3881 0 -10 327 -201 344 -201 11 0 26 23 79 120 16 30 1275 2298
2797 5040 3120 5622 2853 5140 2846 5140 -2 0 -321 -528 -709 -1172z"/>
<path d="M6356 9811 l-99 -99 7 -169 c3 -92 15 -411 26 -708 11 -297 29 -776
40 -1065 11 -289 29 -770 40 -1070 11 -300 29 -781 40 -1069 18 -475 27 -578
45 -530 3 8 4 1093 3 2412 l-3 2397 -99 -99z"/>
<path d="M6517 8938 c-4 -530 -12 -1610 -18 -2401 -6 -791 -8 -1441 -5 -1444
4 -4 10 -2 15 3 9 9 12 76 51 939 24 536 53 1181 80 1775 11 245 29 650 40
900 11 250 25 544 30 653 6 109 10 234 10 279 l0 81 -87 88 c-48 49 -92 89
-98 89 -9 0 -13 -246 -18 -962z"/>
<path d="M5696 8947 l-65 -113 19 -110 c10 -60 73 -433 140 -829 66 -396 134
-796 150 -890 50 -292 320 -1901 320 -1908 0 -10 30 -9 30 1 2 29 -516 3962
-521 3962 -4 0 -37 -51 -73 -113z"/>
<path d="M7196 9000 c-2 -8 -36 -247 -75 -530 -39 -283 -158 -1152 -266 -1930
-107 -778 -195 -1425 -195 -1438 0 -14 5 -22 12 -20 15 5 1 -72 223 1193 103
583 244 1384 314 1780 l128 720 -40 75 c-65 121 -95 166 -101 150z"/>
<path d="M5521 8645 l-60 -106 65 -302 c80 -373 237 -1104 474 -2202 99 -462
186 -864 192 -893 21 -95 47 -72 30 25 -6 32 -150 850 -321 1817 -171 968
-313 1761 -315 1763 -2 2 -31 -44 -65 -102z"/>
<path d="M7375 8678 c-2 -7 -131 -701 -285 -1543 -155 -841 -304 -1649 -331
-1794 -27 -144 -49 -265 -49 -267 0 -13 30 -1 34 14 3 9 73 321 155 692 83
371 252 1129 376 1684 124 555 225 1015 225 1023 0 15 -98 191 -111 199 -5 3
-11 -1 -14 -8z"/>
<path d="M5093 7904 l-42 -76 454 -1278 c250 -703 470 -1323 488 -1377 23 -64
40 -99 51 -101 9 -2 16 0 16 5 0 6 -658 2105 -870 2778 -21 65 -42 120 -46
122 -5 1 -28 -32 -51 -73z"/>
<path d="M7796 7903 c-310 -960 -916 -2846 -916 -2853 0 -6 6 -10 13 -10 11 0
666 1778 981 2660 l34 95 -42 72 c-23 40 -45 75 -48 78 -3 4 -13 -15 -22 -42z"/>
<path d="M4971 7691 l-42 -71 225 -552 c761 -1872 815 -2003 830 -2006 9 -2
16 1 16 6 0 5 -66 189 -146 408 -80 220 -299 820 -486 1334 -187 514 -343 939
-348 943 -4 5 -27 -23 -49 -62z"/>
<path d="M7930 7704 c-89 -231 -990 -2655 -990 -2663 0 -62 86 134 557 1267
l531 1277 -31 55 c-54 98 -54 98 -67 64z"/>
<path d="M4658 7150 c-16 -28 -28 -57 -28 -65 0 -16 1149 -2046 1165 -2057 5
-4 14 -3 19 2 9 9 -1103 2161 -1120 2167 -5 1 -21 -20 -36 -47z"/>
<path d="M7685 6093 c-314 -592 -572 -1083 -573 -1091 -3 -9 3 -13 13 -10 11
2 242 392 612 1033 l595 1030 -30 55 c-16 30 -34 56 -39 57 -5 2 -265 -481
-578 -1074z"/>
<path d="M4583 7018 c-5 -7 -20 -32 -33 -55 l-23 -42 206 -328 c746 -1188 987
-1569 1001 -1578 32 -20 27 7 -16 82 -202 354 -1104 1911 -1113 1921 -10 11
-14 11 -22 0z"/>
<path d="M7761 5995 c-325 -553 -591 -1010 -591 -1015 0 -6 6 -10 14 -10 14 0
1228 1889 1234 1920 3 17 -45 110 -57 110 -5 0 -274 -452 -600 -1005z"/>
<path d="M4316 6558 c-33 -52 -39 -75 -25 -95 8 -11 290 -353 627 -761 441
-533 619 -742 634 -742 11 0 18 4 16 10 -4 12 -1228 1610 -1233 1610 -3 0 -11
-10 -19 -22z"/>
<path d="M7980 5744 c-344 -443 -626 -812 -628 -820 -2 -8 3 -14 12 -14 15 0
1306 1531 1306 1550 0 21 -41 90 -53 89 -6 0 -293 -362 -637 -805z"/>
<path d="M4221 6395 c-11 -20 -21 -42 -21 -49 0 -7 284 -326 631 -709 580
-641 669 -733 669 -689 0 11 -1233 1475 -1246 1479 -6 2 -21 -12 -33 -32z"/>
<path d="M8055 5660 c-352 -413 -641 -755 -643 -760 -2 -6 5 -10 16 -10 15 0
692 726 1275 1367 l58 64 -25 42 c-14 23 -29 43 -33 44 -5 2 -296 -334 -648
-747z"/>
<path d="M3992 5998 c-22 -40 -22 -43 -5 -59 10 -9 297 -254 638 -545 354
-301 629 -528 640 -528 11 -1 20 4 20 11 0 12 -1249 1163 -1262 1163 -4 0 -18
-19 -31 -42z"/>
<path d="M8264 5424 c-362 -327 -660 -599 -662 -605 -2 -5 7 -9 20 -9 16 0
224 169 673 546 358 300 658 553 668 563 18 18 18 20 -7 60 -15 22 -28 41 -30
41 -2 0 -300 -268 -662 -596z"/>
<path d="M3921 5874 c-12 -19 -21 -39 -21 -44 0 -8 1216 -958 1267 -990 14 -9
25 -10 38 -3 19 11 71 -34 -825 717 -234 196 -428 356 -432 356 -3 0 -15 -16
-27 -36z"/>
<path d="M8335 5344 c-363 -300 -661 -549 -663 -553 -4 -13 29 -23 42 -13 439
332 1329 1018 1332 1027 5 13 -33 85 -44 85 -4 -1 -304 -246 -667 -546z"/>
<path d="M3710 5508 c-11 -18 -20 -37 -20 -43 0 -9 1228 -736 1254 -743 6 -1
20 3 30 11 16 12 -46 54 -600 408 -339 216 -623 395 -630 397 -8 2 -23 -12
-34 -30z"/>
<path d="M8545 5106 c-363 -228 -659 -418 -659 -422 6 -37 52 -13 699 360 368
213 672 389 674 392 7 7 -31 77 -44 81 -6 2 -308 -183 -670 -411z"/>
<path d="M3640 5388 c-11 -18 -19 -39 -18 -47 2 -8 279 -160 616 -339 493
-261 618 -323 638 -318 14 4 24 12 22 18 -3 8 -1222 718 -1234 718 -3 0 -13
-15 -24 -32z"/>
<path d="M8624 5026 c-364 -206 -659 -380 -659 -387 0 -8 8 -15 18 -17 9 -2
319 153 687 343 l669 347 -19 38 c-11 21 -24 41 -28 44 -5 3 -305 -163 -668
-368z"/>
<path d="M3422 5011 c-15 -26 -19 -42 -12 -46 6 -4 275 -105 597 -226 575
-214 586 -218 615 -203 17 9 26 19 22 23 -12 11 -1154 484 -1179 488 -15 3
-26 -6 -43 -36z"/>
<path d="M8834 4767 c-352 -144 -642 -266 -645 -272 -2 -5 8 -14 23 -19 23 -8
124 26 680 228 359 131 655 239 657 241 8 9 -44 85 -58 84 -9 0 -304 -119
-657 -262z"/>
<path d="M3355 4892 c-14 -20 -25 -42 -25 -47 0 -6 263 -96 585 -200 577 -186
585 -188 611 -170 14 9 22 20 18 25 -5 4 -240 92 -522 194 -282 103 -542 197
-577 211 l-65 24 -25 -37z"/>
<path d="M9020 4711 c-289 -103 -576 -205 -638 -227 -61 -21 -111 -43 -109
-48 2 -5 12 -15 23 -22 16 -11 109 16 668 192 357 112 652 206 655 209 10 11
-36 80 -55 82 -11 1 -255 -82 -544 -186z"/>
<path d="M6290 4840 c-648 -39 -1325 -313 -1880 -761 -52 -42 -115 -95 -140
-117 l-45 -41 100 -101 101 -101 89 86 c391 377 862 657 1340 799 548 162
1064 138 1640 -79 207 -77 500 -231 704 -368 93 -63 84 -45 -17 31 -450 341
-1002 574 -1507 636 -179 22 -237 24 -385 16z"/>
<path d="M3124 4495 c-14 -25 -25 -48 -22 -50 2 -2 252 -50 555 -105 l551
-102 31 23 c17 13 28 26 24 30 -7 6 -1085 249 -1105 249 -4 0 -19 -20 -34 -45z"/>
<path d="M9155 4383 c-346 -75 -632 -138 -635 -140 -12 -11 50 -50 72 -46 12
2 299 53 636 112 337 59 615 111 618 114 7 7 -43 97 -54 96 -4 0 -290 -62
-637 -136z"/>
<path d="M6292 4470 c-87 -23 -211 -86 -271 -138 l-44 -38 89 4 c74 3 99 0
146 -18 75 -28 150 -96 185 -168 24 -50 28 -69 28 -147 0 -76 -4 -99 -26 -145
-33 -70 -95 -132 -167 -167 -49 -24 -69 -28 -142 -28 -73 0 -93 4 -142 28 -63
31 -130 93 -158 146 l-19 36 -1 -71 c-1 -193 111 -410 273 -531 142 -105 284
-148 462 -140 301 14 538 197 637 493 19 59 23 89 23 204 0 115 -3 145 -23
205 -81 241 -263 415 -498 475 -102 26 -252 26 -352 0z"/>
<path d="M3062 4388 c-18 -24 -43 -80 -38 -85 5 -5 1038 -152 1073 -153 7 0
27 13 45 29 l32 29 -29 6 c-51 10 -1053 186 -1063 186 -5 0 -14 -6 -20 -12z"/>
<path d="M9250 4274 c-338 -57 -621 -107 -629 -109 -12 -5 -9 -12 11 -32 l26
-25 233 30 c129 17 414 54 634 83 220 28 402 54 405 56 7 6 -44 96 -56 99 -5
1 -286 -45 -624 -102z"/>
<path d="M2790 3914 c-18 -30 -31 -57 -29 -58 2 -2 272 -7 599 -10 l595 -7
-40 41 -41 41 -439 19 c-242 10 -479 21 -527 24 l-87 6 -31 -56z"/>
<path d="M9970 3934 c-14 -1 -259 -10 -545 -20 -286 -9 -524 -21 -530 -26 -6
-6 1 -20 23 -39 l32 -29 620 0 c445 0 620 3 620 11 0 6 -12 33 -27 60 l-28 49
-70 -2 c-38 0 -81 -2 -95 -4z"/>
<path d="M8420 3819 c-538 -509 -1175 -824 -1798 -890 -162 -17 -475 -7 -625
20 -429 76 -820 237 -1234 507 -62 40 -113 71 -113 69 0 -7 189 -148 285 -212
543 -362 1227 -568 1745 -524 567 48 1097 238 1595 571 117 78 295 217 377
292 l58 53 -94 98 c-52 53 -98 97 -102 97 -5 -1 -47 -37 -94 -81z"/>
<path d="M2690 3744 c-17 -31 -30 -58 -28 -60 5 -5 1382 47 1387 52 3 2 -8 18
-24 34 l-29 30 -637 0 -637 0 -32 -56z"/>
<path d="M9022 3744 l36 -37 613 -28 c338 -15 616 -26 618 -23 6 6 -26 68 -52
101 l-18 23 -617 0 -617 0 37 -36z"/>
<path d="M3970 3480 c-157 -22 -566 -75 -908 -120 -343 -45 -629 -83 -635 -86
-14 -6 -89 -135 -83 -142 3 -2 101 12 218 32 117 20 560 94 983 166 424 71
774 130 779 130 6 0 -3 14 -19 30 -16 17 -34 30 -39 29 -6 -1 -139 -18 -296
-39z"/>
<path d="M8800 3452 c-31 -27 -32 -30 -15 -35 19 -6 1751 -311 1805 -319 31
-4 30 4 -16 80 -22 38 -45 64 -58 67 -11 3 -383 55 -826 115 -443 61 -816 113
-830 115 -18 4 -35 -3 -60 -23z"/>
<path d="M3345 3255 c-539 -96 -995 -177 -1012 -180 -28 -5 -39 -17 -77 -83
-25 -42 -43 -78 -41 -80 1 -2 496 103 1099 232 603 130 1099 236 1103 236 3 0
-4 11 -17 25 -14 15 -34 25 -49 24 -14 0 -467 -79 -1006 -174z"/>
<path d="M8699 3363 c-16 -14 -28 -27 -27 -29 6 -5 2071 -464 2075 -461 1 2
-18 39 -45 82 l-47 79 -855 158 c-470 86 -904 166 -963 176 l-108 20 -30 -25z"/>
<path d="M3252 2795 c-739 -232 -1350 -428 -1357 -436 -19 -19 -117 -191 -112
-196 3 -2 206 68 453 156 247 87 894 317 1439 511 544 193 992 353 994 356 8
8 -34 33 -54 33 -11 -1 -624 -191 -1363 -424z"/>
<path d="M8409 3151 c-13 -11 -22 -22 -19 -24 9 -9 2792 -1019 2796 -1015 2 2
-25 51 -59 108 l-62 104 -1310 423 c-720 232 -1313 422 -1316 422 -4 1 -17 -8
-30 -18z"/>
<path d="M3212 2620 c-810 -295 -1478 -542 -1484 -548 -20 -20 -128 -217 -120
-220 4 -1 167 63 362 142 1597 648 2776 1128 2779 1132 9 9 -23 34 -43 33 -11
-1 -684 -243 -1494 -539z"/>
<path d="M8306 3085 c-18 -14 -17 -16 25 -34 162 -72 3033 -1260 3036 -1257 3
2 -25 56 -62 119 l-66 115 -167 62 c-92 34 -740 275 -1439 536 -700 261 -1281
474 -1290 474 -10 0 -27 -7 -37 -15z"/>
<path d="M4815 2946 c-66 -35 -898 -468 -1850 -961 -951 -493 -1733 -901
-1736 -907 -11 -18 -70 -250 -65 -255 3 -3 632 350 1398 785 766 434 1618 917
1893 1072 275 156 507 289 515 297 13 12 13 15 0 23 -23 15 -27 13 -155 -54z"/>
<path d="M4805 2844 c-110 -64 -965 -558 -1900 -1097 -935 -539 -1702 -982
-1705 -984 -10 -8 26 -21 142 -52 l119 -32 1797 1128 c988 621 1796 1133 1795
1138 -7 30 -61 7 -248 -101z"/>
<path d="M8053 2944 c-7 -3 -13 -11 -13 -17 1 -10 1065 -627 3486 -2021 124
-71 226 -127 228 -125 4 4 -60 258 -66 264 -11 10 -3591 1897 -3605 1900 -10
2 -24 2 -30 -1z"/>
<path d="M7962 2891 c-18 -11 -80 31 803 -533 418 -267 1190 -759 1715 -1095
525 -335 960 -612 965 -615 10 -6 262 55 272 66 6 6 128 -66 -1657 982 -888
521 -1713 1005 -1834 1076 -120 70 -226 128 -235 128 -9 0 -22 -4 -29 -9z"/>
<path d="M3805 1764 c-781 -597 -1429 -1094 -1440 -1105 -19 -19 -18 -19 115
-19 l135 1 575 475 c316 261 914 755 1327 1096 414 341 750 625 747 629 -3 5
-13 9 -22 9 -9 0 -656 -489 -1437 -1086z"/>
<path d="M5180 2722 c-63 -54 -645 -542 -1292 -1085 -648 -544 -1178 -990
-1178 -993 0 -2 53 -4 118 -4 l118 0 1192 1078 c656 592 1193 1082 1194 1087
2 6 -6 11 -17 12 -13 2 -61 -32 -135 -95z"/>
<path d="M7737 2792 c-10 -2 -17 -7 -15 -12 3 -7 638 -541 2285 -1921 l262
-220 132 3 133 3 -1378 1070 c-758 589 -1383 1073 -1389 1076 -7 3 -20 4 -30
1z"/>
<path d="M7663 2763 c-7 -3 -13 -8 -13 -13 0 -7 984 -914 2167 -1998 l123
-112 115 0 c72 0 114 4 110 10 -3 5 -308 267 -678 582 -370 314 -923 786
-1230 1047 -307 262 -563 479 -570 482 -7 4 -18 4 -24 2z"/>
<path d="M4540 1701 c-525 -571 -956 -1043 -958 -1050 -3 -9 20 -11 84 -9 l89
3 141 165 c724 842 1632 1915 1628 1922 -3 4 -11 8 -17 8 -7 0 -442 -467 -967
-1039z"/>
<path d="M4913 1948 c-356 -425 -746 -890 -865 -1032 -120 -143 -218 -263
-218 -268 0 -4 36 -8 80 -8 l79 0 801 1030 c441 566 799 1034 795 1040 -3 5
-10 10 -15 10 -5 0 -300 -348 -657 -772z"/>
<path d="M7442 2678 c1 -8 386 -470 853 -1026 l850 -1012 88 0 c49 0 87 4 85
9 -1 4 -416 464 -921 1022 -541 598 -927 1015 -938 1017 -14 3 -20 -1 -17 -10z"/>
<path d="M7376 2662 c-3 -6 341 -463 765 -1016 l770 -1006 79 0 c44 0 80 3 80
8 0 13 -1661 2017 -1675 2020 -7 2 -16 -1 -19 -6z"/>
<path d="M5105 1663 c-350 -549 -639 -1003 -642 -1010 -4 -10 11 -13 61 -13
65 0 66 0 90 37 90 139 1155 1966 1151 1973 -4 6 -10 10 -14 10 -5 0 -295
-449 -646 -997z"/>
<path d="M5776 2598 c-13 -24 -272 -473 -576 -998 l-551 -955 62 -3 c34 -2 66
1 70 5 11 11 1049 1975 1049 1985 0 23 -32 3 -54 -34z"/>
<path d="M7185 2611 c-3 -6 228 -414 513 -908 285 -494 540 -935 566 -980 l48
-83 65 0 c57 0 65 2 60 17 -7 27 -1224 1957 -1235 1961 -6 2 -13 -2 -17 -7z"/>
<path d="M5572 1633 c-221 -533 -402 -974 -402 -980 0 -17 94 -17 107 -1 6 7
52 126 103 263 51 138 211 568 357 958 145 389 261 712 258 717 -3 6 -10 10
-14 10 -4 0 -188 -435 -409 -967z"/>
<path d="M7121 2588 c0 -7 226 -447 502 -978 l502 -965 64 -3 c57 -3 63 -1 58
15 -2 10 -250 450 -550 978 -488 858 -579 1010 -576 953z"/>
<path d="M6033 2578 c-11 -14 -703 -1913 -703 -1929 0 -5 22 -9 50 -9 37 0 52
4 59 18 25 46 620 1917 613 1924 -5 5 -13 3 -19 -4z"/>
<path d="M6940 2557 c0 -8 143 -407 319 -888 175 -481 329 -903 341 -939 13
-36 28 -71 33 -77 5 -7 31 -13 58 -13 32 0 49 4 49 13 0 6 -174 441 -387 965
-346 849 -413 1002 -413 939z"/>
<path d="M6196 2543 c-7 -24 -417 -1864 -419 -1883 -1 -11 10 -16 42 -18 24
-2 47 0 52 5 4 4 69 339 143 743 74 404 153 830 175 945 21 116 37 213 34 218
-8 13 -21 8 -27 -10z"/>
<path d="M6880 2547 c0 -14 574 -1847 590 -1884 8 -20 17 -23 60 -23 30 0 50
4 50 11 0 6 -135 391 -300 855 -165 465 -316 892 -336 949 -23 65 -42 105 -50
105 -8 0 -14 -6 -14 -13z"/>
<path d="M6256 2542 c-3 -5 -23 -114 -46 -243 -22 -129 -97 -552 -165 -941
-69 -389 -125 -710 -125 -713 0 -3 22 -5 49 -5 46 0 50 2 55 27 7 33 244 1753
253 1831 4 34 2 52 -5 52 -6 0 -13 -4 -16 -8z"/>
<path d="M6650 2518 c0 -38 239 -1859 245 -1869 4 -5 26 -9 51 -9 35 0 44 3
44 18 0 9 -27 177 -60 372 -33 195 -103 611 -156 924 -52 314 -97 573 -100
578 -10 16 -24 8 -24 -14z"/>
<path d="M6708 2535 c-3 -3 6 -65 19 -138 13 -72 87 -490 164 -927 77 -437
142 -803 145 -812 4 -14 16 -18 56 -18 50 0 50 0 45 28 -3 15 -72 333 -152
707 -81 374 -170 788 -198 919 -47 215 -61 259 -79 241z"/>
<path d="M6420 2506 c0 -13 -5 -115 -10 -227 -20 -384 -70 -1531 -70 -1585 l0
-54 45 0 c28 0 47 5 49 12 3 7 7 433 10 946 6 828 5 932 -9 932 -9 0 -15 -9
-15 -24z"/>
<path d="M6480 1585 l0 -945 44 0 c25 0 47 4 50 8 3 5 -1 177 -9 383 -28 711
-55 1444 -55 1472 0 17 -5 27 -15 27 -13 0 -15 -112 -15 -945z"/>
<path d="M12315 413 c-38 -1 -374 -7 -745 -13 -371 -6 -929 -15 -1240 -20
-311 -6 -828 -14 -1150 -20 -322 -5 -848 -14 -1170 -20 -322 -5 -981 -17
-1465 -25 -484 -8 -1148 -19 -1475 -25 -1100 -19 -1742 -30 -2345 -40 -1043
-18 -1720 -31 -1723 -34 -3 -4 339 -11 1248 -26 316 -6 836 -15 1155 -20 319
-5 848 -14 1175 -20 327 -6 854 -15 1170 -20 316 -5 841 -14 1165 -20 830 -14
1675 -29 2335 -40 311 -5 846 -14 1190 -20 925 -16 2162 -41 2268 -47 l92 -5
0 211 0 211 -207 -2 c-115 -1 -239 -3 -278 -5z"/>
</g>
</svg>
